<?xml version="1.0" encoding="UTF-8"?>
<svg width="58px" height="58px" viewBox="0 0 58 58" version="1.1" xmlns="http://www.w3.org/2000/svg" xmlns:xlink="http://www.w3.org/1999/xlink">
    <!-- Generator: Sketch 51.3 (57544) - http://www.bohemiancoding.com/sketch -->
    <title>Mask</title>
    <desc>Created with Sketch.</desc>
    <defs></defs>
    <g id="Symbols" stroke="none" stroke-width="1" fill="none" fill-rule="evenodd">
        <g id="Icon-XL/Fairer-Handel" transform="translate(-1.000000, -1.000000)" fill="#b5b3b1">
            <path d="M15.9486265,20.4921928 L43.2505542,20.4921928 L46.7389398,36.0781205 C46.7026024,37.7566265 45.3651084,39.1667952 43.5314699,39.4477108 L43.5216867,39.4491084 C43.3120482,39.4868434 43.0870361,39.5078072 42.852241,39.5078072 C41.0842892,39.5078072 39.5441446,38.4274699 39.1011084,36.8803373 L37.7775904,36.8761446 C37.3247711,38.4260723 35.776241,39.5078072 34.0124819,39.5078072 C32.2459277,39.5078072 30.7043855,38.4274699 30.2613494,36.8803373 L28.9378313,36.8803373 C28.4961928,38.4274699 26.953253,39.5078072 25.1866988,39.5078072 C23.4201446,39.5078072 21.8772048,38.4274699 21.4369639,36.8803373 L20.1120482,36.8803373 C19.669012,38.4274699 18.1288675,39.5078072 16.3623133,39.5078072 C16.1834217,39.5078072 16.0045301,39.5008193 15.7837108,39.4588916 C13.9235181,39.2268916 12.5119518,37.7817831 12.4742169,36.0781205 L15.9486265,20.4921928 Z M33.6393253,57.3326747 L33.6393253,48.2385542 L25.6982169,48.2385542 L25.6982169,57.2320482 C22.3481928,56.703759 19.1980241,55.5870843 16.3623133,53.9672771 L16.3623133,40.9026024 C18.1540241,40.9473253 19.8241446,40.0165301 20.7731084,38.6538795 C21.7220723,40.0165301 23.3698313,40.8886265 25.1866988,40.8886265 C27.0049639,40.8886265 28.6513253,40.0165301 29.6002892,38.6524819 C30.5478554,40.0165301 32.1942169,40.8886265 34.0124819,40.8886265 C35.8279518,40.8886265 37.4799036,40.0151325 38.4358554,38.6468916 C39.3820241,40.0151325 41.0311807,40.8886265 42.852241,40.8886265 C42.8955663,40.8886265 42.9333012,40.8788434 42.9766265,40.8774458 L42.9766265,54.3488193 C40.1255422,55.8721928 36.9739759,56.8910361 33.6393253,57.3326747 Z M30,1 C14.0087711,1 1,14.0087711 1,30 C1,45.9898313 14.0087711,59 30,59 C45.9898313,59 59,45.9898313 59,30 C59,14.0087711 45.9898313,1 30,1 Z" id="Mask"></path>
        </g>
    </g>
</svg>