<?xml version="1.0" encoding="UTF-8"?>
<svg width="58px" height="58px" viewBox="0 0 58 58" version="1.1" xmlns="http://www.w3.org/2000/svg" xmlns:xlink="http://www.w3.org/1999/xlink">
    <!-- Generator: Sketch 51.3 (57544) - http://www.bohemiancoding.com/sketch -->
    <title>Mask</title>
    <desc>Created with Sketch.</desc>
    <defs></defs>
    <g id="Symbols" stroke="none" stroke-width="1" fill="none" fill-rule="evenodd">
        <g id="Icon-XL/Events" transform="translate(-1.000000, -1.000000)" fill="#b5b3b1">
            <path d="M30,1 C45.9898313,1 59,14.0101687 59,30 C59,45.9912289 45.9898313,59 30,59 C14.0101687,59 1,45.9912289 1,30 C1,14.0101687 14.0101687,1 30,1 Z M48.7780241,50.1728193 L48.7780241,23.2901687 L41.6447229,23.2901687 L41.6447229,26.659759 C41.6447229,28.2166747 40.3771084,29.4828916 38.8187952,29.4828916 C37.2604819,29.4828916 35.9942651,28.2166747 35.9942651,26.659759 L35.9942651,23.2901687 L24.0155181,23.2901687 L24.0155181,26.659759 C24.0155181,28.2166747 22.7479036,29.4828916 21.190988,29.4828916 C19.6326747,29.4828916 18.3664578,28.2166747 18.3664578,26.659759 L18.3664578,23.2901687 L10.5315663,23.2901687 L10.5315663,49.5466988 C10.9732048,49.9855422 11.4427952,50.392241 11.9123855,50.8017349 L11.9123855,49.5788434 L22.930988,49.5788434 L22.930988,56.6520482 C23.3893976,56.7736386 23.8436145,56.9078072 24.3118072,57.0070361 L24.3118072,49.5788434 L35.2605301,49.5788434 L35.2605301,57.0853012 C35.7273253,56.9958554 36.1829398,56.8756627 36.6413494,56.7610602 L36.6413494,49.5788434 L47.3972048,49.5788434 L47.3972048,51.4040964 C47.8765783,51.0155663 48.3266024,50.5948916 48.7780241,50.1728193 Z M36.6410699,48.1985831 L36.6410699,37.7334265 L47.3284434,37.7334265 L47.3284434,48.1985831 L36.6410699,48.1985831 Z M24.3115277,48.1985831 L24.3115277,37.7334265 L35.2602506,37.7334265 L35.2602506,48.1985831 L24.3115277,48.1985831 Z M11.912106,48.1985831 L11.912106,37.7334265 L22.9307084,37.7334265 L22.9307084,48.1985831 L11.912106,48.1985831 Z M19.621494,22.0225542 L19.621494,26.6178313 C19.621494,27.4256386 20.2755663,28.0797108 21.0833735,28.0797108 C21.8911807,28.0797108 22.545253,27.4256386 22.545253,26.6178313 L22.545253,22.0225542 C22.545253,21.2161446 21.8911807,20.5620723 21.0833735,20.5620723 C20.2755663,20.5620723 19.621494,21.2161446 19.621494,22.0225542 Z M37.4645301,22.0225542 L37.4645301,26.6178313 C37.4645301,27.4256386 38.1186024,28.0797108 38.9264096,28.0797108 C39.7342169,28.0797108 40.3882892,27.4256386 40.3882892,26.6178313 L40.3882892,22.0225542 C40.3882892,21.2161446 39.7342169,20.5620723 38.9264096,20.5620723 C38.1186024,20.5620723 37.4645301,21.2161446 37.4645301,22.0225542 Z" id="Mask"></path>
        </g>
    </g>
</svg>