<?xml version="1.0" encoding="UTF-8"?>
<svg width="58px" height="58px" viewBox="0 0 58 58" version="1.1" xmlns="http://www.w3.org/2000/svg" xmlns:xlink="http://www.w3.org/1999/xlink">
    <!-- Generator: Sketch 51.3 (57544) - http://www.bohemiancoding.com/sketch -->
    <title>Mask</title>
    <desc>Created with Sketch.</desc>
    <defs></defs>
    <g id="Symbols" stroke="none" stroke-width="1" fill="none" fill-rule="evenodd">
        <g id="Icon-XL/Bildung" transform="translate(-1.000000, -1.000000)" fill="#b5b3b1">
            <path d="M45.3133976,52.9484337 C40.927759,55.8847711 35.6630361,57.6024096 30,57.6024096 C24.4361928,57.6024096 19.2637108,55.9350843 14.9255904,53.0937831 L14.9255904,24.176241 C14.9255904,22.0141687 16.6851566,20.256 18.8472289,20.256 L38.8719036,20.256 L38.8719036,23.333494 L42.6733494,23.333494 C43.0604819,23.333494 43.3721446,23.6451566 43.3721446,24.0322892 C43.3721446,24.4180241 43.0604819,24.7310843 42.6733494,24.7310843 L19.5264578,24.7310843 C19.1393253,24.7310843 18.8276627,24.4180241 18.8276627,24.0322892 C18.8276627,23.6451566 19.1393253,23.333494 19.5264578,23.333494 L37.4743133,23.333494 L37.4743133,21.6535904 L18.8472289,21.6535904 C17.4538313,21.6535904 16.3231807,22.7856386 16.3231807,24.176241 C16.3231807,25.5291084 17.4496386,27.1642892 18.8472289,27.1642892 L21.323759,27.1642892 L21.323759,40.2177831 L24.834506,38.461012 L28.6611084,40.1618795 L28.6611084,27.1642892 L45.3133976,27.1642892 L45.3133976,52.9484337 Z M30,1 C14.0101687,1 1,14.0101687 1,30 C1,45.9898313 14.0101687,59 30,59 C45.9898313,59 59,45.9898313 59,30 C59,14.0101687 45.9898313,1 30,1 Z" id="Mask"></path>
        </g>
    </g>
</svg>