<?xml version="1.0" encoding="UTF-8"?>
<svg width="58px" height="58px" viewBox="0 0 58 58" version="1.1" xmlns="http://www.w3.org/2000/svg" xmlns:xlink="http://www.w3.org/1999/xlink">
    <!-- Generator: Sketch 51.3 (57544) - http://www.bohemiancoding.com/sketch -->
    <title>Mask</title>
    <desc>Created with Sketch.</desc>
    <defs></defs>
    <g id="Symbols" stroke="none" stroke-width="1" fill="none" fill-rule="evenodd">
        <g id="Icon-XL/Projekte" transform="translate(-1.000000, -1.000000)" fill="#b5b3b1">
            <path d="M51.1930602,36.055759 L46.301494,36.055759 C45.915759,36.055759 45.6026988,35.7426988 45.6026988,35.3569639 C45.6026988,34.9712289 45.915759,34.6581687 46.301494,34.6581687 L51.1930602,34.6581687 C51.5787952,34.6581687 51.8918554,34.9712289 51.8918554,35.3569639 C51.8918554,35.7426988 51.5787952,36.055759 51.1930602,36.055759 Z M41.9466024,23.9819759 C41.7677108,23.9819759 41.5888193,23.913494 41.4518554,23.7779277 C41.1793253,23.5053976 41.1793253,23.0623614 41.4518554,22.7898313 L44.9108916,19.3307952 C45.1848193,19.0582651 45.6264578,19.0582651 45.898988,19.3307952 C46.1729157,19.6047229 46.1729157,20.0463614 45.898988,20.3188916 L42.4399518,23.7779277 C42.3043855,23.913494 42.125494,23.9819759 41.9466024,23.9819759 Z M34.9348916,46.100241 L34.9348916,46.1128193 L34.9348916,49.7619277 C34.9348916,50.5725301 34.2766265,51.228 33.4813976,51.228 L25.8226024,51.228 C25.012,51.228 24.3537349,50.5725301 24.3537349,49.7619277 L24.3537349,46.1128193 L24.3691084,46.100241 C20.6794699,44.1841446 18.1638072,40.3407711 18.1638072,35.8978313 C18.1638072,29.5527711 23.3055422,24.4096386 29.6506024,24.4096386 C35.9956627,24.4096386 41.1401928,29.5527711 41.1401928,35.8978313 C41.1401928,40.3407711 38.6231325,44.1841446 34.9348916,46.100241 Z M32.5016867,56.4843373 L26.7869398,56.4843373 C26.0140723,56.4843373 25.3893494,55.8596145 25.3893494,55.086747 C25.3893494,54.3138795 26.0140723,53.6891566 26.7869398,53.6891566 L32.5016867,53.6891566 C33.2745542,53.6891566 33.8992771,54.3138795 33.8992771,55.086747 C33.8992771,55.8596145 33.2745542,56.4843373 32.5016867,56.4843373 Z M17.8325783,24.4096386 C17.697012,24.5466024 17.5181205,24.6136867 17.3392289,24.6136867 C17.1603373,24.6136867 16.9814458,24.5466024 16.8444819,24.4096386 L13.3854458,20.9506024 C13.1129157,20.6780723 13.1129157,20.2364337 13.3854458,19.962506 C13.6593735,19.6899759 14.101012,19.6899759 14.3735422,19.962506 L17.8325783,23.4215422 C18.106506,23.6940723 18.106506,24.1371084 17.8325783,24.4096386 Z M13.8983614,36.055759 L9.00679518,36.055759 C8.62106024,36.055759 8.308,35.7426988 8.308,35.3569639 C8.308,34.9712289 8.62106024,34.6581687 9.00679518,34.6581687 L13.8983614,34.6581687 C14.2840964,34.6581687 14.5971566,34.9712289 14.5971566,35.3569639 C14.5971566,35.7426988 14.2840964,36.055759 13.8983614,36.055759 Z M28.949012,13.4133976 C28.949012,13.0262651 29.2620723,12.7146024 29.6478072,12.7146024 C30.0335422,12.7146024 30.3466024,13.0262651 30.3466024,13.4133976 L30.3466024,18.3049639 C30.3466024,18.6906988 30.0335422,19.003759 29.6478072,19.003759 C29.2620723,19.003759 28.949012,18.6906988 28.949012,18.3049639 L28.949012,13.4133976 Z M30,1 C14.0101687,1 1,14.0101687 1,30 C1,45.9898313 14.0101687,59 30,59 C45.9912289,59 59,45.9898313 59,30 C59,14.0101687 45.9912289,1 30,1 Z" id="Mask"></path>
        </g>
    </g>
</svg>