<?xml version="1.0" encoding="UTF-8"?>
<svg width="58px" height="58px" viewBox="0 0 58 58" version="1.1" xmlns="http://www.w3.org/2000/svg" xmlns:xlink="http://www.w3.org/1999/xlink">
    <!-- Generator: Sketch 51.3 (57544) - http://www.bohemiancoding.com/sketch -->
    <title>Mask</title>
    <desc>Created with Sketch.</desc>
    <defs></defs>
    <g id="Symbols" stroke="none" stroke-width="1" fill="none" fill-rule="evenodd">
        <g id="Icon-XL/Akteure" transform="translate(-1.000000, -1.000000)" fill="#b5b3b1">
            <path d="M14.3464673,47.8184909 C14.3464673,42.7548377 21.9100455,40.2563628 21.9100455,40.2563628 C21.9100455,40.2563628 25.4018201,38.8758938 29.8868943,38.8758938 C34.3719686,38.8758938 38.7323366,40.2563628 38.7323366,40.2563628 C38.7323366,40.2563628 46.2814141,42.7258363 46.2814141,47.8184909 L46.2814141,52.2368618 C41.7107855,55.5923296 36.0917546,57.6021301 29.9985499,57.6021301 C24.1881094,57.6021301 18.79964,55.7866393 14.3464673,52.7081354 L14.3464673,47.8184909 Z M22.4480224,25.99925 C22.4480224,21.6388819 25.980399,18.0920046 30.3567178,18.0920046 C32.5361768,18.0920046 34.5097255,18.9750988 35.9322466,20.4106705 C37.3663683,21.8462423 38.2494625,23.819791 38.2494625,25.99925 L38.2494625,27.5725786 C38.2494625,31.9488974 34.7170859,35.4812741 30.3567178,35.4812741 C25.980399,35.4812741 22.4480224,31.9488974 22.4480224,27.5725786 L22.4480224,25.99925 Z M29.9985499,1 C14.0100505,1 1,14.0100505 1,30 C1,45.9899495 14.0100505,59 29.9985499,59 C45.9899495,59 59,45.9899495 59,30 C59,14.0100505 45.9899495,1 29.9985499,1 Z" id="Mask"></path>
        </g>
    </g>
</svg>